<svg width="32" height="32" viewBox="0 0 32 32" fill="none" xmlns="http://www.w3.org/2000/svg">
<path d="M22 4C22 3.46957 22.2107 2.96086 22.5858 2.58579C22.9609 2.21071 23.4696 2 24 2H28C28.5304 2 29.0391 2.21071 29.4142 2.58579C29.7893 2.96086 30 3.46957 30 4V28H31C31.2652 28 31.5196 28.1054 31.7071 28.2929C31.8946 28.4804 32 28.7348 32 29C32 29.2652 31.8946 29.5196 31.7071 29.7071C31.5196 29.8946 31.2652 30 31 30H1C0.734784 30 0.48043 29.8946 0.292893 29.7071C0.105357 29.5196 0 29.2652 0 29C0 28.7348 0.105357 28.4804 0.292893 28.2929C0.48043 28.1054 0.734784 28 1 28H2V22C2 21.4696 2.21071 20.9609 2.58579 20.5858C2.96086 20.2107 3.46957 20 4 20H8C8.53043 20 9.03914 20.2107 9.41421 20.5858C9.78929 20.9609 10 21.4696 10 22V28H12V14C12 13.4696 12.2107 12.9609 12.5858 12.5858C12.9609 12.2107 13.4696 12 14 12H18C18.5304 12 19.0391 12.2107 19.4142 12.5858C19.7893 12.9609 20 13.4696 20 14V28H22V4ZM24 28H28V4H24V28ZM18 28V14H14V28H18ZM8 28V22H4V28H8Z" fill="white" fill-opacity="0.4"/>
</svg>
