<svg width="32" height="32" viewBox="0 0 32 32" fill="none" xmlns="http://www.w3.org/2000/svg">
<g clip-path="url(#clip0_7_382)">
<path d="M16 9.508C15.1475 9.508 14.3033 9.67592 13.5156 10.0022C12.728 10.3284 12.0123 10.8066 11.4095 11.4095C10.8066 12.0123 10.3284 12.728 10.0022 13.5156C9.67592 14.3033 9.508 15.1475 9.508 16C9.508 16.8525 9.67592 17.6967 10.0022 18.4844C10.3284 19.272 10.8066 19.9877 11.4095 20.5905C12.0123 21.1934 12.728 21.6716 13.5156 21.9978C14.3033 22.3241 15.1475 22.492 16 22.492C17.7218 22.492 19.373 21.808 20.5905 20.5905C21.808 19.373 22.492 17.7218 22.492 16C22.492 14.2782 21.808 12.6269 20.5905 11.4095C19.373 10.192 17.7218 9.508 16 9.508ZM11.508 16C11.508 14.8086 11.9813 13.6661 12.8237 12.8237C13.6661 11.9813 14.8086 11.508 16 11.508C17.1913 11.508 18.3339 11.9813 19.1763 12.8237C20.0187 13.6661 20.492 14.8086 20.492 16C20.492 17.1913 20.0187 18.3339 19.1763 19.1763C18.3339 20.0187 17.1913 20.492 16 20.492C14.8086 20.492 13.6661 20.0187 12.8237 19.1763C11.9813 18.3339 11.508 17.1913 11.508 16Z" fill="white" fill-opacity="0.4"/>
<path d="M19.592 2.68598C18.538 -0.894023 13.462 -0.894023 12.408 2.68598L12.22 3.32398C12.1464 3.57388 12.0178 3.80415 11.8436 3.99789C11.6694 4.19164 11.4541 4.34396 11.2135 4.44368C10.9728 4.5434 10.7128 4.588 10.4527 4.57421C10.1925 4.56042 9.93876 4.48859 9.70998 4.36398L9.12598 4.04398C5.84598 2.25998 2.25998 5.84798 4.04598 9.12598L4.36398 9.70998C4.48859 9.93876 4.56042 10.1925 4.57421 10.4527C4.588 10.7128 4.5434 10.9728 4.44368 11.2135C4.34396 11.4541 4.19164 11.6694 3.99789 11.8436C3.80415 12.0178 3.57388 12.1464 3.32398 12.22L2.68598 12.408C-0.894023 13.462 -0.894023 18.538 2.68598 19.592L3.32398 19.78C3.57388 19.8536 3.80415 19.9822 3.99789 20.1563C4.19164 20.3305 4.34396 20.5458 4.44368 20.7865C4.5434 21.0272 4.588 21.2871 4.57421 21.5473C4.56042 21.8074 4.48859 22.0612 4.36398 22.29L4.04398 22.874C2.25998 26.154 5.84598 29.742 9.12598 27.954L9.70998 27.636C9.93876 27.5114 10.1925 27.4395 10.4527 27.4257C10.7128 27.4119 10.9728 27.4565 11.2135 27.5563C11.4541 27.656 11.6694 27.8083 11.8436 28.0021C12.0178 28.1958 12.1464 28.4261 12.22 28.676L12.408 29.314C13.462 32.894 18.538 32.894 19.592 29.314L19.78 28.676C19.8536 28.4261 19.9822 28.1958 20.1563 28.0021C20.3305 27.8083 20.5458 27.656 20.7865 27.5563C21.0272 27.4565 21.2871 27.4119 21.5473 27.4257C21.8074 27.4395 22.0612 27.5114 22.29 27.636L22.874 27.956C26.154 29.742 29.742 26.152 27.954 22.874L27.636 22.29C27.5114 22.0612 27.4395 21.8074 27.4257 21.5473C27.4119 21.2871 27.4565 21.0272 27.5563 20.7865C27.656 20.5458 27.8083 20.3305 28.0021 20.1563C28.1958 19.9822 28.4261 19.8536 28.676 19.78L29.314 19.592C32.894 18.538 32.894 13.462 29.314 12.408L28.676 12.22C28.4261 12.1464 28.1958 12.0178 28.0021 11.8436C27.8083 11.6694 27.656 11.4541 27.5563 11.2135C27.4565 10.9728 27.4119 10.7128 27.4257 10.4527C27.4395 10.1925 27.5114 9.93876 27.636 9.70998L27.956 9.12598C29.742 5.84598 26.152 2.25998 22.874 4.04598L22.29 4.36398C22.0612 4.48859 21.8074 4.56042 21.5473 4.57421C21.2871 4.588 21.0272 4.5434 20.7865 4.44368C20.5458 4.34396 20.3305 4.19164 20.1563 3.99789C19.9822 3.80415 19.8536 3.57388 19.78 3.32398L19.592 2.68598ZM14.326 3.25198C14.818 1.58198 17.182 1.58198 17.674 3.25198L17.862 3.88998C18.02 4.42615 18.296 4.92015 18.6698 5.33577C19.0436 5.7514 19.5057 6.0781 20.0221 6.29194C20.5386 6.50577 21.0964 6.60131 21.6545 6.57156C22.2127 6.5418 22.7572 6.3875 23.248 6.11998L23.83 5.79998C25.358 4.96998 27.03 6.63998 26.198 8.16998L25.88 8.75397C25.6129 9.24483 25.4589 9.78923 25.4295 10.3473C25.4001 10.9053 25.4959 11.4629 25.7099 11.9791C25.9239 12.4954 26.2507 12.9572 26.6663 13.3307C27.082 13.7043 27.5759 13.9801 28.112 14.138L28.748 14.326C30.418 14.818 30.418 17.182 28.748 17.674L28.11 17.862C27.5738 18.02 27.0798 18.296 26.6642 18.6698C26.2486 19.0436 25.9218 19.5057 25.708 20.0221C25.4942 20.5386 25.3986 21.0964 25.4284 21.6545C25.4582 22.2127 25.6124 22.7572 25.88 23.248L26.2 23.83C27.03 25.358 25.36 27.03 23.83 26.198L23.248 25.88C22.757 25.6125 22.2125 25.4583 21.6542 25.4286C21.0959 25.399 20.538 25.4947 20.0215 25.7087C19.5051 25.9228 19.043 26.2497 18.6693 26.6656C18.2957 27.0814 18.0198 27.5756 17.862 28.112L17.674 28.748C17.182 30.418 14.818 30.418 14.326 28.748L14.138 28.11C13.9799 27.5741 13.7039 27.0803 13.3302 26.6649C12.9566 26.2495 12.4948 25.9229 11.9786 25.7091C11.4624 25.4953 10.9049 25.3997 10.3469 25.4293C9.78897 25.4588 9.2447 25.6128 8.75397 25.88L8.16998 26.2C6.64198 27.03 4.96998 25.36 5.80198 23.83L6.11998 23.248C6.38788 22.7571 6.54248 22.2125 6.57243 21.654C6.60238 21.0956 6.50692 20.5376 6.29306 20.0209C6.0792 19.5041 5.75237 19.0419 5.33653 18.6679C4.9207 18.294 4.42643 18.0179 3.88998 17.86L3.25198 17.672C1.58198 17.18 1.58198 14.816 3.25198 14.324L3.88998 14.136C4.42559 13.9778 4.91905 13.7019 5.33426 13.3284C5.74947 12.9548 6.0759 12.4932 6.28968 11.9773C6.50346 11.4613 6.59917 10.9041 6.56981 10.3464C6.54045 9.78871 6.38675 9.24462 6.11998 8.75397L5.79998 8.16998C4.96998 6.64198 6.63998 4.96998 8.16998 5.80198L8.75397 6.11998C9.2447 6.38713 9.78897 6.54112 10.3469 6.57068C10.9049 6.60024 11.4624 6.50462 11.9786 6.29081C12.4948 6.077 12.9566 5.75043 13.3302 5.33502C13.7039 4.9196 13.9799 4.42587 14.138 3.88998L14.326 3.25198Z" fill="white" fill-opacity="0.4"/>
</g>
<defs>
<clipPath id="clip0_7_382">
<rect width="32" height="32" fill="white"/>
</clipPath>
</defs>
</svg>
